<?xml version="1.0" encoding="UTF-8" standalone="no"?>
<!DOCTYPE svg PUBLIC "-//W3C//DTD SVG 1.1//EN"
 "http://www.w3.org/Graphics/SVG/1.1/DTD/svg11.dtd">
<!-- Generated by graphviz version 2.43.0 (0)
 -->
<!-- Title: flow Pages: 1 -->
<svg width="765pt" height="617pt"
 viewBox="0.00 0.00 765.00 617.00" xmlns="http://www.w3.org/2000/svg" xmlns:xlink="http://www.w3.org/1999/xlink">
<g id="graph0" class="graph" transform="scale(1 1) rotate(0) translate(4 613)">
<title>flow</title>
<polygon fill="white" stroke="transparent" points="-4,4 -4,-613 761,-613 761,4 -4,4"/>
<!-- input -->
<g id="node1" class="node">
<title>input</title>
<polygon fill="white" stroke="#8a8a8a" points="670.5,-609 465.5,-609 465.5,-573 676.5,-573 676.5,-603 670.5,-609"/>
<polyline fill="none" stroke="#8a8a8a" points="670.5,-609 670.5,-603 "/>
<polyline fill="none" stroke="#8a8a8a" points="676.5,-603 670.5,-603 "/>
<text text-anchor="middle" x="571" y="-593.8" font-family="Helvetica,sans-Serif" font-size="9.00">one reported row: &#160;censoring flag, &#160;value x,</text>
<text text-anchor="middle" x="571" y="-583.8" font-family="Helvetica,sans-Serif" font-size="9.00">quantification limit LOQ, &#160;standard T</text>
</g>
<!-- pre -->
<g id="node2" class="node">
<title>pre</title>
<path fill="#f4f4f2" stroke="#1f1f1f" d="M559.35,-533.13C559.35,-533.13 422.18,-499.37 422.18,-499.37 416.36,-497.93 416.36,-495.07 422.18,-493.63 422.18,-493.63 559.35,-459.87 559.35,-459.87 565.17,-458.43 576.83,-458.43 582.65,-459.87 582.65,-459.87 719.82,-493.63 719.82,-493.63 725.64,-495.07 725.64,-497.93 719.82,-499.37 719.82,-499.37 582.65,-533.13 582.65,-533.13 576.83,-534.57 565.17,-534.57 559.35,-533.13"/>
<text text-anchor="middle" x="571" y="-505" font-family="Helvetica,sans-Serif" font-size="10.00">Does the standard apply to what</text>
<text text-anchor="middle" x="571" y="-494" font-family="Helvetica,sans-Serif" font-size="10.00">was measured?</text>
<text text-anchor="middle" x="571" y="-483" font-family="Helvetica,sans-Serif" font-size="10.00">(bioavailable metal, hardness class)</text>
</g>
<!-- input&#45;&gt;pre -->
<g id="edge1" class="edge">
<title>input&#45;&gt;pre</title>
<path fill="none" stroke="#8a8a8a" stroke-dasharray="5,2" d="M571,-572.6C571,-565.07 571,-555.84 571,-546.45"/>
<polygon fill="#8a8a8a" stroke="#8a8a8a" points="574.5,-546.29 571,-536.29 567.5,-546.29 574.5,-546.29"/>
</g>
<!-- status -->
<g id="node3" class="node">
<title>status</title>
<path fill="#f4f4f2" stroke="#1f1f1f" d="M444.45,-407.76C444.45,-407.76 326.79,-374.74 326.79,-374.74 321.02,-373.12 321.02,-369.88 326.79,-368.26 326.79,-368.26 444.45,-335.24 444.45,-335.24 450.22,-333.62 461.78,-333.62 467.55,-335.24 467.55,-335.24 585.21,-368.26 585.21,-368.26 590.98,-369.88 590.98,-373.12 585.21,-374.74 585.21,-374.74 467.55,-407.76 467.55,-407.76 461.78,-409.38 450.22,-409.38 444.45,-407.76"/>
<text text-anchor="middle" x="456" y="-380" font-family="Helvetica,sans-Serif" font-size="10.00">Detection status, read from the</text>
<text text-anchor="middle" x="456" y="-369" font-family="Helvetica,sans-Serif" font-size="10.00">censoring flag, the value</text>
<text text-anchor="middle" x="456" y="-358" font-family="Helvetica,sans-Serif" font-size="10.00">and the LOQ</text>
</g>
<!-- pre&#45;&gt;status -->
<g id="edge3" class="edge">
<title>pre&#45;&gt;status</title>
<path fill="none" stroke="#8a8a8a" d="M541.68,-464.14C526.56,-447.97 507.99,-428.11 492.01,-411.01"/>
<polygon fill="#8a8a8a" stroke="#8a8a8a" points="494.25,-408.29 484.87,-403.37 489.14,-413.07 494.25,-408.29"/>
<text text-anchor="middle" x="526.5" y="-431.8" font-family="Helvetica,sans-Serif" font-size="9.00"> yes</text>
</g>
<!-- PreconditionUnmet -->
<g id="node7" class="node">
<title>PreconditionUnmet</title>
<path fill="#c98a2e" stroke="#c98a2e" d="M745,-389.5C745,-389.5 627,-389.5 627,-389.5 621,-389.5 615,-383.5 615,-377.5 615,-377.5 615,-365.5 615,-365.5 615,-359.5 621,-353.5 627,-353.5 627,-353.5 745,-353.5 745,-353.5 751,-353.5 757,-359.5 757,-365.5 757,-365.5 757,-377.5 757,-377.5 757,-383.5 751,-389.5 745,-389.5"/>
<text text-anchor="middle" x="686" y="-369" font-family="Helvetica,sans-Serif" font-size="10.00" fill="white">censo:PreconditionUnmet</text>
</g>
<!-- pre&#45;&gt;PreconditionUnmet -->
<g id="edge2" class="edge">
<title>pre&#45;&gt;PreconditionUnmet</title>
<path fill="none" stroke="#8a8a8a" d="M600.32,-464.14C619.73,-443.37 644.85,-416.51 662.86,-397.25"/>
<polygon fill="#8a8a8a" stroke="#8a8a8a" points="665.59,-399.45 669.87,-389.75 660.48,-394.67 665.59,-399.45"/>
<text text-anchor="middle" x="639.5" y="-431.8" font-family="Helvetica,sans-Serif" font-size="9.00"> no</text>
</g>
<!-- art3 -->
<g id="node4" class="node">
<title>art3</title>
<path fill="#f4f4f2" stroke="#1f1f1f" d="M164.56,-282.38C164.56,-282.38 62.76,-250.12 62.76,-250.12 57.04,-248.31 57.04,-244.69 62.76,-242.88 62.76,-242.88 164.56,-210.62 164.56,-210.62 170.28,-208.81 181.72,-208.81 187.44,-210.62 187.44,-210.62 289.24,-242.88 289.24,-242.88 294.96,-244.69 294.96,-248.31 289.24,-250.12 289.24,-250.12 187.44,-282.38 187.44,-282.38 181.72,-284.19 170.28,-284.19 164.56,-282.38"/>
<text text-anchor="middle" x="176" y="-249.5" font-family="Helvetica,sans-Serif" font-size="10.00">Is the quantification limit</text>
<text text-anchor="middle" x="176" y="-238.5" font-family="Helvetica,sans-Serif" font-size="10.00">above the standard? &#160;LOQ &gt; T</text>
</g>
<!-- status&#45;&gt;art3 -->
<g id="edge5" class="edge">
<title>status&#45;&gt;art3</title>
<path fill="none" stroke="#8a8a8a" d="M402.34,-346.93C354.91,-326.09 285.77,-295.72 236.4,-274.03"/>
<polygon fill="#8a8a8a" stroke="#8a8a8a" points="237.68,-270.77 227.11,-269.95 234.86,-277.18 237.68,-270.77"/>
<text text-anchor="middle" x="347.5" y="-306.8" font-family="Helvetica,sans-Serif" font-size="9.00"> censored</text>
</g>
<!-- contra -->
<g id="node5" class="node">
<title>contra</title>
<path fill="#f4f4f2" stroke="#1f1f1f" d="M444.65,-282.1C444.65,-282.1 352.54,-250.4 352.54,-250.4 346.86,-248.45 346.86,-244.55 352.54,-242.6 352.54,-242.6 444.65,-210.9 444.65,-210.9 450.33,-208.95 461.67,-208.95 467.35,-210.9 467.35,-210.9 559.46,-242.6 559.46,-242.6 565.14,-244.55 565.14,-248.45 559.46,-250.4 559.46,-250.4 467.35,-282.1 467.35,-282.1 461.67,-284.05 450.33,-284.05 444.65,-282.1"/>
<text text-anchor="middle" x="456" y="-249.5" font-family="Helvetica,sans-Serif" font-size="10.00">Is the reported value below</text>
<text text-anchor="middle" x="456" y="-238.5" font-family="Helvetica,sans-Serif" font-size="10.00">its own LOQ? &#160;x &lt; LOQ</text>
</g>
<!-- status&#45;&gt;contra -->
<g id="edge6" class="edge">
<title>status&#45;&gt;contra</title>
<path fill="none" stroke="#8a8a8a" d="M456,-331.92C456,-320.69 456,-308.28 456,-296.5"/>
<polygon fill="#8a8a8a" stroke="#8a8a8a" points="459.5,-296.37 456,-286.37 452.5,-296.37 459.5,-296.37"/>
<text text-anchor="middle" x="480.5" y="-306.8" font-family="Helvetica,sans-Serif" font-size="9.00"> quantified</text>
</g>
<!-- BoundNotEstablished -->
<g id="node8" class="node">
<title>BoundNotEstablished</title>
<path fill="#c98a2e" stroke="#c98a2e" d="M695,-139.5C695,-139.5 567,-139.5 567,-139.5 561,-139.5 555,-133.5 555,-127.5 555,-127.5 555,-115.5 555,-115.5 555,-109.5 561,-103.5 567,-103.5 567,-103.5 695,-103.5 695,-103.5 701,-103.5 707,-109.5 707,-115.5 707,-115.5 707,-127.5 707,-127.5 707,-133.5 701,-139.5 695,-139.5"/>
<text text-anchor="middle" x="631" y="-119" font-family="Helvetica,sans-Serif" font-size="10.00" fill="white">censo:BoundNotEstablished</text>
</g>
<!-- status&#45;&gt;BoundNotEstablished -->
<g id="edge4" class="edge">
<title>status&#45;&gt;BoundNotEstablished</title>
<path fill="none" stroke="#8a8a8a" d="M507.12,-346.1C532.27,-331.76 561.16,-311.44 580,-286 610.58,-244.71 623.11,-184.67 628.03,-150"/>
<polygon fill="#8a8a8a" stroke="#8a8a8a" points="631.55,-150.06 629.37,-139.69 624.61,-149.16 631.55,-150.06"/>
<text text-anchor="middle" x="642.5" y="-244.3" font-family="Helvetica,sans-Serif" font-size="9.00"> unresolved</text>
</g>
<!-- MethodInsufficient -->
<g id="node9" class="node">
<title>MethodInsufficient</title>
<path fill="#c98a2e" stroke="#c98a2e" d="M128,-139.5C128,-139.5 12,-139.5 12,-139.5 6,-139.5 0,-133.5 0,-127.5 0,-127.5 0,-115.5 0,-115.5 0,-109.5 6,-103.5 12,-103.5 12,-103.5 128,-103.5 128,-103.5 134,-103.5 140,-109.5 140,-115.5 140,-115.5 140,-127.5 140,-127.5 140,-133.5 134,-139.5 128,-139.5"/>
<text text-anchor="middle" x="70" y="-119" font-family="Helvetica,sans-Serif" font-size="10.00" fill="white">censo:MethodInsufficient</text>
</g>
<!-- art3&#45;&gt;MethodInsufficient -->
<g id="edge7" class="edge">
<title>art3&#45;&gt;MethodInsufficient</title>
<path fill="none" stroke="#8a8a8a" d="M149.8,-215.1C131.8,-194.21 108.21,-166.84 91.35,-147.28"/>
<polygon fill="#8a8a8a" stroke="#8a8a8a" points="93.98,-144.97 84.8,-139.68 88.68,-149.54 93.98,-144.97"/>
<text text-anchor="middle" x="136.5" y="-181.8" font-family="Helvetica,sans-Serif" font-size="9.00"> yes</text>
</g>
<!-- Compliant -->
<g id="node10" class="node">
<title>Compliant</title>
<path fill="#3c7a3c" stroke="#3c7a3c" d="M241,-36C241,-36 167,-36 167,-36 161,-36 155,-30 155,-24 155,-24 155,-12 155,-12 155,-6 161,0 167,0 167,0 241,0 241,0 247,0 253,-6 253,-12 253,-12 253,-24 253,-24 253,-30 247,-36 241,-36"/>
<text text-anchor="middle" x="204" y="-15.5" font-family="Helvetica,sans-Serif" font-size="10.00" fill="white">censo:Compliant</text>
</g>
<!-- art3&#45;&gt;Compliant -->
<g id="edge8" class="edge">
<title>art3&#45;&gt;Compliant</title>
<path fill="none" stroke="#8a8a8a" d="M175.55,-206.88C175.77,-173.57 177.57,-124.28 185,-82 187.13,-69.85 190.85,-56.75 194.43,-45.65"/>
<polygon fill="#8a8a8a" stroke="#8a8a8a" points="197.77,-46.71 197.63,-36.11 191.13,-44.48 197.77,-46.71"/>
<text text-anchor="middle" x="192.5" y="-119.3" font-family="Helvetica,sans-Serif" font-size="9.00"> no</text>
</g>
<!-- band -->
<g id="node6" class="node">
<title>band</title>
<path fill="#f4f4f2" stroke="#1f1f1f" d="M361.33,-158.18C361.33,-158.18 221.02,-124.32 221.02,-124.32 215.18,-122.91 215.18,-120.09 221.02,-118.68 221.02,-118.68 361.33,-84.82 361.33,-84.82 367.17,-83.41 378.83,-83.41 384.67,-84.82 384.67,-84.82 524.98,-118.68 524.98,-118.68 530.82,-120.09 530.82,-122.91 524.98,-124.32 524.98,-124.32 384.67,-158.18 384.67,-158.18 378.83,-159.59 367.17,-159.59 361.33,-158.18"/>
<text text-anchor="middle" x="373" y="-124.5" font-family="Helvetica,sans-Serif" font-size="10.00">Is x within T/2 of T — the widest</text>
<text text-anchor="middle" x="373" y="-113.5" font-family="Helvetica,sans-Serif" font-size="10.00">uncertainty the law lets a method have?</text>
</g>
<!-- contra&#45;&gt;band -->
<g id="edge10" class="edge">
<title>contra&#45;&gt;band</title>
<path fill="none" stroke="#8a8a8a" d="M434.84,-214.14C424.62,-198.99 412.2,-180.6 401.19,-164.27"/>
<polygon fill="#8a8a8a" stroke="#8a8a8a" points="404.07,-162.29 395.57,-155.95 398.27,-166.2 404.07,-162.29"/>
<text text-anchor="middle" x="424.5" y="-181.8" font-family="Helvetica,sans-Serif" font-size="9.00"> no</text>
</g>
<!-- contra&#45;&gt;BoundNotEstablished -->
<g id="edge9" class="edge">
<title>contra&#45;&gt;BoundNotEstablished</title>
<path fill="none" stroke="#8a8a8a" d="M493.11,-219.41C524.25,-197.53 568.31,-166.56 598.18,-145.57"/>
<polygon fill="#8a8a8a" stroke="#8a8a8a" points="600.41,-148.28 606.58,-139.66 596.39,-142.55 600.41,-148.28"/>
<text text-anchor="middle" x="558.5" y="-181.8" font-family="Helvetica,sans-Serif" font-size="9.00"> yes</text>
</g>
<!-- band&#45;&gt;Compliant -->
<g id="edge13" class="edge">
<title>band&#45;&gt;Compliant</title>
<path fill="none" stroke="#8a8a8a" d="M327.27,-93.03C300.25,-76.8 266.47,-56.52 241.12,-41.29"/>
<polygon fill="#8a8a8a" stroke="#8a8a8a" points="242.9,-38.28 232.52,-36.13 239.29,-44.28 242.9,-38.28"/>
<text text-anchor="middle" x="302.5" y="-56.8" font-family="Helvetica,sans-Serif" font-size="9.00"> no, below</text>
</g>
<!-- PossibleExceedance -->
<g id="node11" class="node">
<title>PossibleExceedance</title>
<path fill="#c98a2e" stroke="#c98a2e" d="M420.5,-36C420.5,-36 297.5,-36 297.5,-36 291.5,-36 285.5,-30 285.5,-24 285.5,-24 285.5,-12 285.5,-12 285.5,-6 291.5,0 297.5,0 297.5,0 420.5,0 420.5,0 426.5,0 432.5,-6 432.5,-12 432.5,-12 432.5,-24 432.5,-24 432.5,-30 426.5,-36 420.5,-36"/>
<text text-anchor="middle" x="359" y="-15.5" font-family="Helvetica,sans-Serif" font-size="10.00" fill="white">censo:PossibleExceedance</text>
</g>
<!-- band&#45;&gt;PossibleExceedance -->
<g id="edge11" class="edge">
<title>band&#45;&gt;PossibleExceedance</title>
<path fill="none" stroke="#8a8a8a" d="M367.83,-82.99C366.15,-70.84 364.32,-57.6 362.77,-46.33"/>
<polygon fill="#8a8a8a" stroke="#8a8a8a" points="366.21,-45.66 361.38,-36.23 359.28,-46.61 366.21,-45.66"/>
<text text-anchor="middle" x="375.5" y="-56.8" font-family="Helvetica,sans-Serif" font-size="9.00"> yes</text>
</g>
<!-- Exceedance -->
<g id="node12" class="node">
<title>Exceedance</title>
<path fill="#b03030" stroke="#b03030" d="M545.5,-36C545.5,-36 462.5,-36 462.5,-36 456.5,-36 450.5,-30 450.5,-24 450.5,-24 450.5,-12 450.5,-12 450.5,-6 456.5,0 462.5,0 462.5,0 545.5,0 545.5,0 551.5,0 557.5,-6 557.5,-12 557.5,-12 557.5,-24 557.5,-24 557.5,-30 551.5,-36 545.5,-36"/>
<text text-anchor="middle" x="504" y="-15.5" font-family="Helvetica,sans-Serif" font-size="10.00" fill="white">censo:Exceedance</text>
</g>
<!-- band&#45;&gt;Exceedance -->
<g id="edge12" class="edge">
<title>band&#45;&gt;Exceedance</title>
<path fill="none" stroke="#8a8a8a" d="M410.89,-91.14C430.9,-75.64 455.12,-56.87 473.84,-42.37"/>
<polygon fill="#8a8a8a" stroke="#8a8a8a" points="476,-45.12 481.76,-36.23 471.71,-39.59 476,-45.12"/>
<text text-anchor="middle" x="482" y="-56.8" font-family="Helvetica,sans-Serif" font-size="9.00"> no, above</text>
</g>
</g>
</svg>
